# xmcd
# 
# Track frame offsets:
#     150
#     17886
#     33317
#     50581
#     65754
#     83249
#     101128
#     110883
#     127533
#     139830
#     154453
#     173328
#     183173
# 
# Disc length: 2671
# 
# Revision: 1
# Processed by: cddbd v1.5.2PL0 Copyright (c) Steve Scherf et al.
# Submitted via: fre:ac v1.0.31
# 
DISCID=ae0a6d0d
DTITLE=A Great Big World - Is There Anybody Out There?
DYEAR=2014
DGENRE=Rock/Pop
TTITLE0=Rockstar
TTITLE1=Land Of Opportunity
TTITLE2=Already Home
TTITLE3=I Really Want It
TTITLE4=Say Something
TTITLE5=You'll Be Okay
TTITLE6=Everyone Is Gay
TTITLE7=There Is An Answer
TTITLE8=I Don't Wanna Love Somebody Else
TTITLE9=This Is The New Year
TTITLE10=Shorty Don't Wait
TTITLE11=Cheer Up!
TTITLE12=Say Something (feat. Christina Aguilera)
EXTD=
EXTT0=
EXTT1=
EXTT2=
EXTT3=
EXTT4=
EXTT5=
EXTT6=
EXTT7=
EXTT8=
EXTT9=
EXTT10=
EXTT11=
EXTT12=
PLAYORDER=
